<svg xmlns="http://www.w3.org/2000/svg" viewBox="0 0 24 24" fill="currentColor">
  <path d="M12 15.5A3.5 3.5 0 0 1 8.5 12 3.5 3.5 0 0 1 12 8.5a3.5 3.5 0 0 1 3.5 3.5 3.5 3.5 0 0 1-3.5 3.5zm7.4-2.7l-1.1-1.1a5.5 5.5 0 0 0 0-1.4l1.1-1.1a1 1 0 0 0 0-1.4l-1.4-1.4a1 1 0 0 0-1.4 0l-1.1 1.1a5.5 5.5 0 0 0-1.4 0l-1.1-1.1a1 1 0 0 0-1.4 0L8.3 5.7a1 1 0 0 0 0 1.4l1.1 1.1a5.5 5.5 0 0 0 0 1.4l-1.1 1.1a1 1 0 0 0 0 1.4l1.4 1.4a1 1 0 0 0 1.4 0l1.1-1.1a5.5 5.5 0 0 0 1.4 0l1.1 1.1a1 1 0 0 0 1.4 0l1.4-1.4a1 1 0 0 0 0-1.4z"/>
</svg>
