<svg xmlns="http://www.w3.org/2000/svg" viewBox="0 0 24 24" fill="currentColor">
  <path d="M19.43 12.98c.04-.32.07-.65.07-.98s-.03-.66-.07-.98l2.11-1.65a.5.5 0 0 0 .12-.66l-2-3.46a.5.5 0 0 0-.61-.22l-2.49 1a7.14 7.14 0 0 0-1.7-.98l-.38-2.65a.5.5 0 0 0-.5-.42h-4a.5.5 0 0 0-.5.42l-.38 2.65c-.62.24-1.2.56-1.7.98l-2.49-1a.5.5 0 0 0-.61.22l-2 3.46a.5.5 0 0 0 .12.66l2.11 1.65c-.04.32-.07.65-.07.98s.03.66.07.98l-2.11 1.65a.5.5 0 0 0-.12.66l2 3.46c.14.24.43.34.68.22l2.49-1c.5.42 1.08.74 1.7.98l.38 2.65c.04.26.25.42.5.42h4c.25 0 .46-.16.5-.42l.38-2.65a7.14 7.14 0 0 0 1.7-.98l2.49 1c.25.12.54.02.68-.22l2-3.46a.5.5 0 0 0-.12-.66l-2.11-1.65ZM12 15.5a3.5 3.5 0 1 1 0-7 3.5 3.5 0 0 1 0 7Z"/>
</svg>
